<svg width="170" height="190" fill="none" xmlns="http://www.w3.org/2000/svg"><g clip-path="url(#a)" fillRule="evenodd" clip-rule="evenodd"><path d="M92.034 93.068c-3.919-2.263-9.854-2.508-13.244-.55L2.34 136.654c-3.39 1.958-2.966 5.384.953 7.647l74.543 43.037c3.919 2.263 9.854 2.508 13.244.55l76.449-44.137c3.39-1.958 2.966-5.385-.953-7.647L92.034 93.068z" fill="url(#b)" fill-opacity=".15"/><path d="M87.703 35.581c.355.117.722.255 1.097.416v.22l77.221 44.584v24.401L88.8 60.618v.02s-2.134.512-5.155.673c-1.983.105-2.874-.539-4.24-.168L-.021 107.002V83.039L78.76 37.554v-.064s1.362-1.467 3.754-2.103c.307-.082.629-.15.97-.199v-2.043l4.218 2.436z" fill="#ACACD5"/><path d="M92.034 61.929c-3.919-2.263-9.854-2.508-13.244-.55L2.34 105.516c-3.39 1.958-2.966 5.384.953 7.647L77.837 156.2c3.919 2.263 9.854 2.508 13.244.55l76.449-44.137c3.39-1.958 2.966-5.384-.953-7.647L92.034 61.929z" fill="url(#c)"/><path d="M84.26 130.254-.022 80.674v27.544a5.284 5.284 0 0 0 2.638 4.574c11.03 6.371 53.18 32.31 75.534 43.61.591.3 1.123.535 1.677.734a15.35 15.35 0 0 0 2.317.636 16.48 16.48 0 0 0 4.136.273 12.99 12.99 0 0 0 2.77-.46 9.481 9.481 0 0 0 2.432-1.033c14.332-8.276 66.202-38.22 76.514-44.175a3.583 3.583 0 0 0 1.79-3.103V80.988c0-.468-85.528 49.266-85.528 49.266z" fill="url(#d)"/><path d="M92.006 34.14c-3.919-2.26-9.855-2.508-13.246-.546L2.313 77.728c-3.395 1.961-2.968 5.386.95 7.65l74.542 43.038c3.92 2.26 9.856 2.507 13.25.55L167.5 84.828c3.395-1.957 2.968-5.386-.951-7.647l-74.542-43.04zm-2.874 2.269c-2.254-1.303-5.667-1.441-7.617-.315L6.644 79.318c-1.954 1.127-1.707 3.1.546 4.402l73.49 42.427c2.253 1.303 5.667 1.445 7.617.318l74.875-43.228c1.95-1.126 1.703-3.099-.551-4.398l-73.49-42.43z" fill="#E8E8E8"/><path d="m1.038 48.668-.116-.588-.876.652v2.2c-.026 1.52 1.074 3.13 3.241 4.384L77.83 98.353c3.92 2.26 9.856 2.507 13.25.546l76.444-44.134c1.55-.894 2.306-2.096 2.291-3.353v-2.235l-.603.318c-.531-.853-1.415-1.673-2.639-2.38L92.03 4.078c-3.919-2.261-9.855-2.508-13.246-.547L2.337 47.665c-.524.303-.959.64-1.3 1.003z" fill="#2E2E63"/><path d="M92.028 1.876c-3.92-2.263-9.854-2.508-13.245-.55L2.334 45.463c-3.39 1.958-2.966 5.384.953 7.647L77.83 96.147c3.919 2.263 9.854 2.508 13.245.55l76.448-44.137c3.391-1.958 2.966-5.384-.953-7.647L92.028 1.876z" fill="#ACACD5"/><path d="M9.288 100.954c0-.542-.33-1.171-.737-1.406l-4.069-2.35c-.407-.234-.736.015-.736.557s.33 1.171.736 1.406l4.07 2.349c.406.235.736-.014.736-.556zM9.288 103.746c0-.542-.33-1.171-.737-1.406l-4.069-2.35c-.407-.234-.736.015-.736.557s.33 1.171.736 1.406l4.07 2.349c.406.236.736-.014.736-.556zM15.836 104.735c0-.542-.329-1.171-.736-1.406l-4.069-2.35c-.407-.235-.736.015-.736.557s.33 1.171.736 1.406l4.069 2.349c.407.235.736-.014.736-.556zM15.836 107.526c0-.542-.329-1.171-.736-1.406l-4.069-2.349c-.407-.235-.736.014-.736.556s.33 1.171.736 1.406l4.069 2.349c.407.236.736-.014.736-.556zM69.27 136.482c0-.55-.337-1.19-.746-1.426l-44.633-25.77c-.413-.238-.746.015-.746.565 0 .551.333 1.188.746 1.427l44.633 25.769c.41.236.746-.015.746-.565zM155.329 100.512c0-.697-.422-1.018-.947-.715-.522.301-.946 1.111-.946 1.808v6.962c0 .7.424 1.02.946.718.525-.303.947-1.111.947-1.811v-6.962zM158.696 98.568c0-.696-.422-1.018-.947-.715-.522.301-.946 1.112-.946 1.808v6.962c0 .7.424 1.02.946.719.525-.304.947-1.112.947-1.812v-6.962zM162.068 96.62c0-.696-.422-1.018-.947-.714-.522.3-.946 1.111-.946 1.807v6.962c0 .7.424 1.02.946.719.525-.303.947-1.111.947-1.811v-6.962zM165.435 94.677c0-.696-.421-1.018-.947-.715-.521.301-.946 1.112-.946 1.808v6.962c0 .7.425 1.02.946.719.526-.303.947-1.112.947-1.812v-6.962z" fill="#8282C1"/><path d="M87.75 30.436c-1.56-.9-3.922-.998-5.272-.22L52.042 47.79c-1.35.78-1.181 2.144.379 3.044l29.677 17.135c1.56.9 3.923.998 5.273.219l30.436-17.572c1.35-.78 1.181-2.144-.379-3.045L87.751 30.436z" fill="#1B1B3A" fill-opacity=".5"/><path d="m53.797 41.161-.043-.218-.325.242v7.917c-.01.564.398 1.162 1.203 1.627l27.657 15.968c1.454.839 3.657.93 4.916.203l28.363-16.375c.575-.332.856-.778.85-1.245v-7.928l-.223.118c-.197-.317-.525-.623-.979-.884L87.558 24.618c-1.454-.84-3.657-.932-4.915-.204L54.28 40.789a2.096 2.096 0 0 0-.482.372z" fill="url(#e)"/><path d="M87.545 23.754c-1.454-.84-3.656-.93-4.914-.204L54.266 39.926c-1.258.727-1.1 1.998.353 2.838l27.658 15.968c1.454.84 3.656.93 4.914.204l28.365-16.376c1.258-.727 1.101-1.998-.353-2.838L87.545 23.754z" fill="#5E75F2"/><path d="M84.093 41.151c3.443 1.769 8.731 1.702 12.033-.204 3.425-1.977 3.424-5.185 0-7.16-3.424-1.976-8.983-1.977-12.408 0-3.17 1.829-3.406 4.717-.7 6.703l-1.632.942-.147-.085c-.387-.223-1.016-.224-1.404 0l-7.002 4.041c-.387.224-.386.586.001.81l1.403.809c.387.223 1.015.224 1.402 0l7.002-4.04c.389-.225.387-.587 0-.81l-.145-.084 1.597-.922zm10.48-6.468c-2.567-1.48-6.734-1.482-9.301 0-2.567 1.481-2.565 3.886.001 5.367 2.566 1.48 6.732 1.48 9.298 0 2.567-1.482 2.567-3.886.001-5.367z" fill="#fff"/></g><defs><linearGradient id="b" x1="65.832" y1="195.856" x2="130.759" y2="103.293" gradientUnits="userSpaceOnUse"><stop stop-color="#fff"/><stop offset="1" stop-color="#333" stop-opacity=".1"/></linearGradient><linearGradient id="c" x1="97.393" y1="18.21" x2="4.19" y2="124.375" gradientUnits="userSpaceOnUse"><stop stop-color="#1B1B3A"/><stop offset=".965" stop-color="#ACACD5"/></linearGradient><linearGradient id="d" x1="84.892" y1="80.662" x2="83.114" y2="191.174" gradientUnits="userSpaceOnUse"><stop stop-color="#E8E8E8"/><stop offset="1" stop-color="#8282C1"/></linearGradient><linearGradient id="e" x1="84.924" y1="23.923" x2="84.924" y2="67.391" gradientUnits="userSpaceOnUse"><stop stop-color="#8383C5"/><stop offset="1" stop-color="#151F6D"/></linearGradient><clipPath id="a"><path fill="#fff" d="M0 0h169.82v189.246H0z"/></clipPath></defs></svg>
